<svg width="352" height="445" xmlns="http://www.w3.org/2000/svg" xmlns:xlink="http://www.w3.org/1999/xlink" xml:space="preserve" overflow="hidden"><defs><clipPath id="clip0"><rect x="0" y="0" width="352" height="445"/></clipPath></defs><g clip-path="url(#clip0)"><path d="M2999.79 310.288 2999.79 277.945 3002.82 277.945C3008.88 277.945 3012.93 278.956 3016.97 281.988 3020 285.02 3023.03 290.074 3023.03 294.117 3023.03 299.17 3021.01 303.213 3016.97 306.245 3013.94 309.277 3009.89 310.288 3002.82 310.288L2999.79 310.288ZM2989.68 318.374 3004.84 318.374C3012.93 318.374 3017.98 316.352 3023.03 312.309 3029.1 307.256 3032.13 300.181 3032.13 293.106 3032.13 277.945 3021.01 267.838 3003.83 267.838L2988.67 267.838 2988.67 318.374ZM2951.27 300.181 2936.11 300.181 2943.19 281.988 2951.27 300.181ZM2955.32 308.267 2959.36 318.374 2970.48 318.374 2948.24 267.838 2941.17 267.838 2918.93 318.374 2930.05 318.374 2935.1 308.267 2955.32 308.267ZM2892.65 318.374 2892.65 276.935 2904.78 276.935 2904.78 268.849 2871.43 268.849 2871.43 276.935 2882.55 276.935 2882.55 318.374 2892.65 318.374ZM2852.22 273.902C2848.18 269.86 2843.13 268.849 2837.06 268.849 2827.97 268.849 2820.89 274.913 2820.89 282.999 2820.89 290.074 2823.92 293.106 2834.03 296.138 2838.07 297.149 2840.1 298.159 2841.11 299.17 2843.13 300.181 2844.14 302.202 2844.14 304.224 2844.14 308.267 2841.11 311.299 2836.05 311.299 2831 311.299 2826.96 309.277 2824.93 304.224L2818.87 310.288C2823.92 316.352 2828.98 319.384 2837.06 319.384 2847.17 319.384 2855.26 312.309 2855.26 303.213 2855.26 295.127 2852.22 292.095 2840.1 288.052 2834.03 286.031 2832.01 284.01 2832.01 281.988 2832.01 278.956 2835.04 276.935 2839.08 276.935 2842.12 276.935 2844.14 277.945 2847.17 280.977L2852.22 273.902ZM2777.43 292.095 2777.43 277.945 2780.46 277.945C2787.54 277.945 2790.57 279.967 2790.57 285.02 2790.57 290.074 2787.54 292.095 2781.47 292.095L2777.43 292.095ZM2777.43 300.181 2783.5 300.181C2794.61 300.181 2800.68 294.117 2800.68 284.01 2800.68 279.967 2798.66 274.913 2795.62 271.881 2792.59 268.849 2788.55 267.838 2781.47 267.838L2766.31 267.838 2766.31 317.363 2776.42 317.363 2776.42 300.181ZM2728.92 300.181 2713.76 300.181 2720.83 281.988 2728.92 300.181ZM2732.96 308.267 2737 318.374 2748.12 318.374 2725.89 267.838 2718.81 267.838 2696.57 318.374 2707.69 318.374 2712.75 308.267 2732.96 308.267ZM2664.23 300.181 2649.07 300.181 2656.15 281.988 2664.23 300.181ZM2667.26 308.267 2671.31 318.374 2682.42 318.374 2660.19 267.838 2652.1 267.838 2629.87 318.374 2640.99 318.374 2646.04 308.267 2667.26 308.267ZM2583.38 290.074 2583.38 268.849 2573.27 268.849 2573.27 318.374 2583.38 318.374 2583.38 297.149 2584.39 296.138 2602.58 318.374 2615.72 318.374 2592.47 292.095 2614.71 268.849 2601.57 268.849 2583.38 290.074ZM2467.14 318.374 2477.25 318.374 2477.25 285.02 2508.58 319.384 2515.66 319.384 2515.66 268.849 2505.55 268.849 2505.55 302.202 2474.22 267.838 2467.14 267.838 2467.14 318.374ZM2429.75 300.181 2414.59 300.181 2421.66 281.988 2429.75 300.181ZM2432.78 308.267 2436.82 318.374 2447.94 318.374 2425.7 267.838 2417.62 267.838 2395.38 318.374 2406.5 318.374 2411.55 308.267 2432.78 308.267ZM2343.84 268.849 2332.72 268.849 2354.95 319.384 2360.01 319.384 2382.24 268.849 2371.13 268.849 2356.98 302.202 2343.84 268.849ZM2275.11 318.374 2275.11 276.935 2287.24 276.935 2287.24 268.849 2253.88 268.849 2253.88 276.935 2265 276.935 2265 318.374 2275.11 318.374ZM2233.67 268.849 2223.56 268.849 2223.56 318.374 2233.67 318.374 2233.67 268.849ZM2200.32 277.945 2200.32 269.86 2172.02 269.86 2172.02 319.384 2200.32 319.384 2200.32 311.299 2182.12 311.299 2182.12 298.159 2200.32 298.159 2200.32 290.074 2182.12 290.074 2182.12 278.956 2200.32 278.956ZM2139.67 318.374 2139.67 276.935 2151.8 276.935 2151.8 268.849 2118.45 268.849 2118.45 276.935 2129.57 276.935 2129.57 318.374 2139.67 318.374ZM2098.23 268.849 2088.13 268.849 2088.13 318.374 2098.23 318.374 2098.23 268.849ZM2064.88 273.902C2060.84 269.86 2055.78 268.849 2049.72 268.849 2040.62 268.849 2033.55 274.913 2033.55 282.999 2033.55 290.074 2036.58 293.106 2046.69 296.138 2050.73 297.149 2052.75 298.159 2053.76 299.17 2055.78 300.181 2056.79 302.202 2056.79 304.224 2056.79 308.267 2053.76 311.299 2048.71 311.299 2043.66 311.299 2039.61 309.277 2037.59 304.224L2031.53 310.288C2036.58 316.352 2041.63 319.384 2049.72 319.384 2059.83 319.384 2067.91 312.309 2067.91 303.213 2067.91 295.127 2064.88 292.095 2052.75 288.052 2046.69 286.031 2044.67 284.01 2044.67 281.988 2044.67 278.956 2047.7 276.935 2051.74 276.935 2054.77 276.935 2056.79 277.945 2059.83 280.977L2064.88 273.902ZM1986.05 292.095 1986.05 276.935 1989.08 276.935C1995.14 276.935 1999.18 279.967 1999.18 284.01 1999.18 289.063 1996.15 292.095 1989.08 292.095L1986.05 292.095ZM1997.16 298.159C2005.25 297.149 2009.29 292.095 2009.29 284.01 2009.29 274.913 2002.22 268.849 1991.1 268.849L1975.94 268.849 1975.94 318.374 1986.05 318.374 1986.05 298.159 1987.06 298.159 2001.21 318.374 2013.33 318.374 1997.16 298.159ZM1952.69 277.945 1952.69 269.86 1924.39 269.86 1924.39 319.384 1952.69 319.384 1952.69 311.299 1934.5 311.299 1934.5 298.159 1952.69 298.159 1952.69 290.074 1934.5 290.074 1934.5 278.956 1952.69 278.956ZM1865.77 268.849 1854.65 268.849 1876.89 319.384 1881.94 319.384 1904.18 268.849 1893.06 268.849 1878.91 302.202 1865.77 268.849ZM1836.46 268.849 1826.35 268.849 1826.35 318.374 1836.46 318.374 1836.46 268.849ZM1752.57 318.374 1762.68 318.374 1762.68 285.02 1794.01 319.384 1801.09 319.384 1801.09 268.849 1790.98 268.849 1790.98 302.202 1759.65 267.838 1752.57 267.838 1752.57 318.374ZM1694.96 268.849 1684.85 268.849 1684.85 299.17C1684.85 305.234 1685.86 309.277 1688.9 312.309 1692.94 316.352 1699 319.384 1706.08 319.384 1713.15 319.384 1719.22 316.352 1723.26 312.309 1726.29 309.277 1727.3 305.234 1727.3 299.17L1727.3 268.849 1717.2 268.849 1717.2 297.149C1717.2 302.202 1717.2 304.224 1715.17 306.245 1713.15 309.277 1710.12 311.299 1706.08 311.299 1702.04 311.299 1699 309.277 1696.98 306.245 1695.97 304.224 1694.96 302.202 1694.96 297.149L1694.96 268.849ZM1635.33 282.999C1629.26 282.999 1624.21 288.052 1624.21 293.106 1624.21 299.17 1629.26 303.213 1635.33 303.213 1641.39 303.213 1646.45 298.159 1646.45 293.106 1646.45 288.052 1641.39 282.999 1635.33 282.999ZM1569.63 300.181 1554.47 300.181 1561.55 281.988 1569.63 300.181ZM1572.66 308.267 1576.71 318.374 1587.83 318.374 1565.59 267.838 1557.5 267.838 1535.27 318.374 1546.39 318.374 1551.44 308.267 1572.66 308.267ZM1496.86 292.095 1496.86 277.945 1499.89 277.945C1506.97 277.945 1510 279.967 1510 285.02 1510 290.074 1506.97 292.095 1500.9 292.095L1496.86 292.095ZM1496.86 300.181 1502.93 300.181C1514.04 300.181 1520.11 294.117 1520.11 284.01 1520.11 279.967 1518.09 274.913 1515.05 271.881 1512.02 268.849 1507.98 267.838 1500.9 267.838L1485.74 267.838 1485.74 317.363 1495.85 317.363 1495.85 300.181ZM1449.36 300.181 1434.2 300.181 1441.27 281.988 1449.36 300.181ZM1452.39 308.267 1456.43 318.374 1467.55 318.374 1445.32 267.838 1437.23 267.838 1414.99 318.374 1426.11 318.374 1431.17 308.267 1452.39 308.267ZM1369.51 290.074 1369.51 268.849 1359.41 268.849 1359.41 318.374 1369.51 318.374 1369.51 297.149 1370.52 296.138 1388.72 318.374 1401.85 318.374 1378.61 292.095 1400.84 268.849 1387.7 268.849 1369.51 290.074ZM1336.16 277.945 1336.16 269.86 1307.86 269.86 1307.86 319.384 1336.16 319.384 1336.16 311.299 1317.97 311.299 1317.97 298.159 1336.16 298.159 1336.16 290.074 1317.97 290.074 1317.97 278.956 1336.16 278.956ZM1283.6 273.902C1279.56 269.86 1274.51 268.849 1268.44 268.849 1259.34 268.849 1252.27 274.913 1252.27 282.999 1252.27 290.074 1255.3 293.106 1265.41 296.138 1269.45 297.149 1271.47 298.159 1272.48 299.17 1274.51 300.181 1275.52 302.202 1275.52 304.224 1275.52 308.267 1272.48 311.299 1267.43 311.299 1262.38 311.299 1258.33 309.277 1256.31 304.224L1250.25 310.288C1255.3 316.352 1260.36 319.384 1268.44 319.384 1278.55 319.384 1286.63 312.309 1286.63 303.213 1286.63 295.127 1283.6 292.095 1271.47 288.052 1265.41 286.031 1263.39 284.01 1263.39 281.988 1263.39 278.956 1266.42 276.935 1270.46 276.935 1273.49 276.935 1275.52 277.945 1278.55 280.977L1283.6 273.902ZM1214.87 300.181 1199.71 300.181 1206.79 281.988 1214.87 300.181ZM1217.91 308.267 1221.95 318.374 1233.07 318.374 1210.83 267.838 1202.74 267.838 1180.51 318.374 1191.63 318.374 1196.68 308.267 1217.91 308.267ZM1140.08 296.138 1140.08 319.384 1150.19 319.384 1150.19 296.138 1168.38 268.849 1156.25 268.849 1145.13 286.031 1134.02 268.849 1121.89 268.849 1140.08 296.138ZM1071.35 268.849 1061.25 268.849 1061.25 318.374 1071.35 318.374 1071.35 268.849ZM1003.64 288.052 1003.64 268.849 993.528 268.849 993.528 318.374 1003.64 318.374 1003.64 296.138 1025.87 296.138 1025.87 318.374 1035.98 318.374 1035.98 268.849 1025.87 268.849 1025.87 288.052 1003.64 288.052ZM962.196 318.374 962.196 276.935 974.325 276.935 974.325 268.849 940.971 268.849 940.971 276.935 952.089 276.935 952.089 318.374 962.196 318.374ZM920.757 268.849 910.65 268.849 910.65 318.374 920.757 318.374 920.757 268.849ZM886.393 273.902C882.35 269.86 877.296 268.849 871.232 268.849 862.136 268.849 855.061 274.913 855.061 282.999 855.061 290.074 858.093 293.106 868.2 296.138 872.243 297.149 874.264 298.159 875.275 299.17 877.296 300.181 878.307 302.202 878.307 304.224 878.307 308.267 875.275 311.299 870.221 311.299 865.168 311.299 861.125 309.277 859.104 304.224L853.039 310.288C858.093 316.352 863.146 319.384 871.232 319.384 881.339 319.384 889.425 312.309 889.425 303.213 889.425 295.127 886.393 292.095 874.264 288.052 868.2 286.031 866.178 284.01 866.178 281.988 866.178 278.956 869.211 276.935 873.253 276.935 876.286 276.935 878.307 277.945 881.339 280.977L886.393 273.902ZM832.825 277.945 832.825 269.86 804.525 269.86 804.525 319.384 832.825 319.384 832.825 311.299 814.632 311.299 814.632 298.159 832.825 298.159 832.825 290.074 814.632 290.074 814.632 278.956 832.825 278.956ZM745.904 268.849 734.786 268.849 757.022 319.384 762.075 319.384 784.311 268.849 773.193 268.849 759.043 302.202 745.904 268.849ZM716.593 268.849 706.486 268.849 706.486 318.374 716.593 318.374 716.593 268.849ZM632.704 318.374 642.812 318.374 642.812 285.02 674.144 319.384 681.219 319.384 681.219 268.849 671.112 268.849 671.112 302.202 639.779 267.838 632.704 267.838 632.704 318.374ZM575.094 268.849 564.987 268.849 564.987 299.17C564.987 305.234 565.998 309.277 569.03 312.309 573.073 316.352 579.137 319.384 586.212 319.384 593.287 319.384 599.351 316.352 603.394 312.309 606.426 309.277 607.437 305.234 607.437 299.17L607.437 268.849 597.33 268.849 597.33 297.149C597.33 302.202 597.33 304.224 595.308 306.245 593.287 309.277 590.255 311.299 586.212 311.299 582.169 311.299 579.137 309.277 577.115 306.245 576.105 304.224 575.094 302.202 575.094 297.149L575.094 268.849ZM518.494 296.138 518.494 319.384 528.601 319.384 528.601 296.138 546.794 268.849 534.666 268.849 523.548 286.031 512.43 268.849 500.301 268.849 518.494 296.138ZM482.109 268.849 472.002 268.849 472.002 318.374 482.109 318.374 482.109 268.849Z" fill="#FFFFFF" transform="matrix(1 0 0 1.00065 0 0.505682)"/><path d="M2919.94 202.142 2943.19 202.142 2943.19 120.274 3015.96 204.163 3032.13 204.163 3032.13 81.8675 3008.88 81.8675 3008.88 162.724 2936.11 78.8354 2919.94 78.8354 2919.94 202.142ZM2744.08 81.8675 2719.82 81.8675 2762.27 204.163 2778.44 204.163 2806.74 125.328 2833.02 204.163 2849.19 204.163 2893.66 81.8675 2869.41 81.8675 2841.11 163.735 2812.81 80.8568 2799.67 80.8568 2770.36 163.735 2744.08 81.8675ZM2635.93 100.06C2658.17 100.06 2675.35 118.253 2675.35 141.499 2675.35 164.746 2657.16 182.939 2635.93 182.939 2613.7 182.939 2596.51 164.746 2596.51 141.499 2595.5 119.264 2613.7 100.06 2635.93 100.06ZM2635.93 78.8354C2600.56 78.8354 2572.26 106.125 2572.26 141.499 2572.26 176.874 2599.55 204.163 2635.93 204.163 2671.31 204.163 2699.61 176.874 2699.61 141.499 2699.61 106.125 2671.31 78.8354 2635.93 78.8354ZM2523.74 202.142 2523.74 102.082 2551.03 102.082 2551.03 81.8675 2474.22 81.8675 2474.22 102.082 2500.5 102.082 2500.5 202.142 2523.74 202.142ZM2379.21 102.082 2379.21 81.8675 2313.52 81.8675 2313.52 202.142 2379.21 202.142 2379.21 181.928 2336.76 181.928 2336.76 149.585 2378.2 149.585 2378.2 129.371 2336.76 129.371 2336.76 103.092 2379.21 103.092ZM2228.62 137.457 2228.62 102.082 2236.7 102.082C2252.87 102.082 2259.95 107.135 2259.95 119.264 2259.95 131.392 2252.87 136.446 2237.71 136.446L2228.62 136.446ZM2228.62 157.671 2243.78 157.671C2269.04 157.671 2284.2 143.521 2284.2 119.264 2284.2 108.146 2280.16 98.0389 2272.08 90.9639 2265 83.8889 2255.9 81.8675 2240.74 81.8675L2205.37 81.8675 2205.37 202.142 2228.62 202.142 2228.62 157.671ZM2136.64 157.671 2102.28 157.671 2119.46 114.21 2136.64 157.671ZM2143.72 176.874 2153.82 202.142 2179.09 202.142 2128.56 78.8354 2111.37 78.8354 2058.82 202.142 2083.07 202.142 2094.19 176.874 2143.72 176.874ZM2038.6 85.9104C2028.49 80.8568 2020.41 78.8354 2010.3 78.8354 1974.93 78.8354 1946.63 107.135 1946.63 141.499 1946.63 176.874 1973.92 204.163 2009.29 204.163 2019.4 204.163 2027.48 202.142 2038.6 197.088L2038.6 169.799C2029.51 178.896 2021.42 182.939 2010.3 182.939 1987.06 182.939 1969.87 165.756 1969.87 141.499 1969.87 118.253 1987.06 100.06 2009.29 100.06 2020.41 100.06 2028.49 104.103 2038.6 113.2L2038.6 85.9104ZM1841.51 102.082 1841.51 81.8675 1778.85 81.8675 1778.85 202.142 1802.1 202.142 1802.1 149.585 1839.49 149.585 1839.49 129.371 1802.1 129.371 1802.1 103.092 1841.51 103.092ZM1680.81 100.06C1703.05 100.06 1720.23 118.253 1720.23 141.499 1720.23 164.746 1702.04 182.939 1680.81 182.939 1658.58 182.939 1641.39 164.746 1641.39 141.499 1640.38 119.264 1658.58 100.06 1680.81 100.06ZM1680.81 78.8354C1645.44 78.8354 1617.14 106.125 1617.14 141.499 1617.14 176.874 1644.43 204.163 1680.81 204.163 1716.19 204.163 1744.49 176.874 1744.49 141.499 1744.49 106.125 1716.19 78.8354 1680.81 78.8354ZM1457.44 146.553 1457.44 202.142 1480.69 202.142 1480.69 146.553 1522.13 81.8675 1494.84 81.8675 1469.57 123.307 1444.3 81.8675 1417.02 81.8675 1457.44 146.553ZM1376.59 202.142 1376.59 102.082 1403.88 102.082 1403.88 81.8675 1327.06 81.8675 1327.06 102.082 1353.34 102.082 1353.34 202.142 1376.59 202.142ZM1298.76 81.8675 1275.52 81.8675 1275.52 202.142 1298.76 202.142 1298.76 81.8675ZM1239.13 92.9853C1229.02 83.8889 1216.89 79.8461 1203.76 79.8461 1182.53 79.8461 1166.36 95.0067 1166.36 114.21 1166.36 130.382 1173.43 139.478 1195.67 147.564 1204.77 150.596 1209.82 152.617 1211.84 154.639 1216.89 157.671 1218.92 161.714 1218.92 166.767 1218.92 176.874 1210.83 183.949 1200.72 183.949 1189.61 183.949 1180.51 177.885 1175.46 167.778L1160.3 181.928C1171.41 198.099 1183.54 205.174 1201.73 205.174 1225.99 205.174 1243.17 189.003 1243.17 165.756 1243.17 146.553 1235.09 138.467 1208.81 128.36 1194.66 123.307 1190.62 119.264 1190.62 113.2 1190.62 106.125 1197.69 100.06 1207.8 100.06 1214.87 100.06 1220.94 103.092 1227 110.167L1239.13 92.9853ZM1076.41 137.457 1076.41 101.071 1083.48 101.071C1097.63 101.071 1105.72 107.135 1105.72 119.264 1105.72 131.392 1097.63 137.457 1083.48 137.457L1076.41 137.457ZM1102.68 151.607C1119.87 147.564 1129.97 135.435 1129.97 117.242 1129.97 95.0067 1114.81 81.8675 1087.52 81.8675L1053.16 81.8675 1053.16 202.142 1076.41 202.142 1076.41 153.628 1079.44 153.628 1111.78 202.142 1140.08 202.142 1102.68 151.607ZM1017.78 102.082 1017.78 81.8675 952.089 81.8675 952.089 202.142 1017.78 202.142 1017.78 181.928 975.335 181.928 975.335 149.585 1016.77 149.585 1016.77 129.371 975.335 129.371 975.335 103.092 1017.78 103.092ZM835.857 81.8675 810.589 81.8675 861.125 205.174 873.253 205.174 924.8 81.8675 899.532 81.8675 867.189 162.724 835.857 81.8675ZM784.311 81.8675 761.065 81.8675 761.065 202.142 784.311 202.142 784.311 81.8675ZM609.458 202.142 632.704 202.142 632.704 120.274 705.476 204.163 721.647 204.163 721.647 81.8675 698.401 81.8675 698.401 162.724 625.63 78.8354 609.458 78.8354 609.458 202.142ZM496.259 81.8675 473.012 81.8675 473.012 155.649C473.012 169.799 476.044 179.906 482.109 187.992 490.194 199.11 505.355 205.174 521.526 205.174 537.698 205.174 552.858 199.11 560.944 187.992 567.008 179.906 570.04 169.799 570.04 155.649L570.04 81.8675 545.783 81.8675 545.783 150.596C545.783 162.724 544.773 166.767 541.741 171.821 537.698 178.896 529.612 182.939 520.516 182.939 511.419 182.939 503.334 178.896 499.291 171.821 496.259 166.767 495.248 162.724 495.248 150.596L495.248 81.8675Z" fill="#FFFFFF" transform="matrix(1 0 0 1.00065 0 0.505682)"/><path d="M0 0 341.62 0C341.62 0 341.62 130.382 341.62 214.271 341.62 386.091 170.81 443.702 170.81 443.702 170.81 443.702 0 386.091 0 214.271 0 130.382 0 0 0 0Z" transform="matrix(1 0 0 1.00065 0 0.505682)"/><path d="M336.566 5.05355 336.566 214.271C336.566 372.952 187.992 431.573 170.81 438.648 153.628 432.584 5.05355 372.952 5.05355 215.281L5.05355 5.05355 336.566 5.05355Z" fill="#FFFFFF" transform="matrix(1 0 0 1.00065 0 0.505682)"/><path d="M321.406 214.271C321.406 351.727 201.131 409.338 170.81 422.477 140.489 410.348 20.2142 351.727 20.2142 215.281L20.2142 20.2142 321.406 20.2142 321.406 214.271Z" transform="matrix(1 0 0 1.00065 0 0.505682)"/><path d="M170.81 416.413C137.457 402.263 25.2678 345.663 25.2678 214.271L25.2678 25.2678 316.352 25.2678 316.352 214.271C316.352 345.663 204.163 403.273 170.81 416.413Z" transform="matrix(1 0 0 1.00065 0 0.505682)"/><path d="M171.821 165.756C178.896 165.756 182.939 170.81 182.939 176.874 182.939 177.885 182.939 180.917 180.917 181.928L179.906 181.928C179.906 181.928 179.906 181.928 179.906 181.928 179.906 181.928 180.917 179.906 180.917 179.906 180.917 178.896 180.917 177.885 180.917 176.874 180.917 173.842 177.885 168.789 174.853 168.789L171.821 168.789C170.81 168.789 170.81 168.789 170.81 169.799 170.81 171.821 172.831 171.821 173.842 172.831 175.864 174.853 176.874 176.874 176.874 178.896 176.874 179.906 175.864 183.949 173.842 183.949L164.746 183.949C162.724 183.949 162.724 180.917 162.724 179.906 162.724 179.906 162.724 178.896 162.724 177.885 161.714 170.81 165.756 165.756 171.821 165.756Z" fill="#FFFFFF" transform="matrix(1 0 0 1.00065 0 0.505682)"/><path d="M172.831 157.671C173.842 157.671 177.885 158.681 178.896 159.692 178.896 160.703 179.906 160.703 179.906 160.703 179.906 160.703 181.928 164.746 181.928 164.746L181.928 166.767C177.885 163.735 174.853 162.724 171.821 162.724 168.789 162.724 165.756 163.735 162.724 166.767 162.724 166.767 162.724 166.767 162.724 165.756 162.724 165.756 162.724 164.746 162.724 164.746 164.746 160.703 168.789 157.671 172.831 157.671Z" fill="#FFFFFF" transform="matrix(1 0 0 1.00065 0 0.505682)"/><path d="M187.992 156.66C195.067 157.671 203.153 159.692 210.228 163.735 210.228 163.735 209.217 164.746 209.217 164.746 203.153 165.756 198.099 165.756 192.035 166.767 191.024 163.735 187.992 157.671 187.992 156.66 187.992 156.66 187.992 156.66 187.992 156.66Z" fill="#FFFFFF" transform="matrix(1 0 0 1.00065 0 0.505682)"/><path d="M155.649 156.66 157.671 156.66C155.649 159.692 153.628 163.735 153.628 167.778L150.596 167.778C146.553 167.778 134.424 165.756 132.403 164.746 139.478 159.692 147.564 157.671 155.649 156.66Z" fill="#FFFFFF" transform="matrix(1 0 0 1.00065 0 0.505682)"/><path d="M178.896 155.649C179.906 155.649 180.917 155.649 181.928 155.649 184.96 156.66 186.981 162.724 186.981 164.746 186.981 164.746 186.981 165.756 186.981 166.767 186.981 166.767 186.981 166.767 186.981 169.799 186.981 171.821 185.971 175.864 183.949 177.885 183.949 171.821 182.939 172.831 182.939 167.778 182.939 165.756 181.928 162.724 179.906 160.703 176.874 157.671 174.853 156.66 171.821 156.66 164.746 156.66 159.692 162.724 159.692 167.778 159.692 167.778 159.692 168.789 159.692 168.789 159.692 169.799 159.692 170.81 159.692 170.81 159.692 172.831 157.671 175.864 158.681 177.885 156.66 177.885 155.649 172.831 155.649 171.821 155.649 171.821 155.649 170.81 155.649 169.799 155.649 165.756 159.692 156.66 162.724 155.649L178.896 155.649Z" fill="#FFFFFF" transform="matrix(1 0 0 1.00065 0 0.505682)"/><path d="M143.521 151.607C144.532 151.607 145.542 155.649 145.542 155.649 145.542 156.66 144.532 156.66 142.51 157.671 140.489 158.681 138.467 158.681 136.446 159.692 134.424 160.703 131.392 161.714 128.36 162.724 127.349 161.714 126.339 159.692 126.339 158.681 127.349 156.66 142.51 151.607 143.521 151.607Z" fill="#FFFFFF" transform="matrix(1 0 0 1.00065 0 0.505682)"/><path d="M198.099 151.607C199.11 151.607 215.281 156.66 215.281 158.681 215.281 159.692 214.271 161.714 213.26 161.714 212.249 161.714 208.206 159.692 206.185 158.681 203.153 157.671 200.121 156.66 197.088 155.649 196.078 155.649 196.078 154.639 196.078 154.639 197.088 154.639 198.099 151.607 198.099 151.607Z" fill="#FFFFFF" transform="matrix(1 0 0 1.00065 0 0.505682)"/><path d="M129.371 148.574C130.382 149.585 130.382 151.607 130.382 152.617 130.382 153.628 126.339 155.649 125.328 155.649 125.328 155.649 123.307 152.617 123.307 151.607 124.317 150.596 128.36 148.574 129.371 148.574Z" fill="#FFFFFF" transform="matrix(1 0 0 1.00065 0 0.505682)"/><path d="M213.26 148.574C214.271 148.574 219.324 150.596 219.324 151.607 219.324 151.607 218.313 153.628 217.303 155.649 217.303 155.649 211.238 153.628 211.238 152.617 211.238 151.607 212.249 148.574 213.26 148.574Z" fill="#FFFFFF" transform="matrix(1 0 0 1.00065 0 0.505682)"/><path d="M173.842 147.564C173.842 147.564 174.853 147.564 178.896 147.564 184.96 147.564 191.024 148.574 197.088 150.596L197.088 151.607C197.088 152.617 196.078 154.639 196.078 154.639 195.067 154.639 190.013 153.628 187.992 152.617 185.971 152.617 182.939 152.617 179.906 151.607L173.842 151.607C173.842 151.607 173.842 151.607 172.831 150.596L172.831 147.564C172.831 148.574 173.842 147.564 173.842 147.564Z" fill="#FFFFFF" transform="matrix(1 0 0 1.00065 0 0.505682)"/><path d="M170.81 147.564C170.81 148.574 171.821 148.574 171.821 149.585 171.821 152.617 170.81 152.617 167.778 152.617L164.746 152.617C161.714 152.617 148.574 155.649 147.564 155.649 146.553 155.649 145.542 152.617 145.542 152.617 145.542 152.617 145.542 151.607 145.542 151.607 146.553 151.607 148.574 150.596 150.596 150.596 154.639 149.585 159.692 149.585 163.735 148.574L170.81 147.564Z" fill="#FFFFFF" transform="matrix(1 0 0 1.00065 0 0.505682)"/><path d="M186.981 141.499C189.003 141.499 211.238 146.553 211.238 148.574 211.238 149.585 210.228 152.617 209.217 152.617 205.174 151.607 200.121 149.585 196.078 148.574 193.046 147.564 189.003 147.564 185.971 146.553 185.971 144.532 185.971 144.532 185.971 143.521 185.971 143.521 185.971 141.499 186.981 141.499Z" fill="#FFFFFF" transform="matrix(1 0 0 1.00065 0 0.505682)"/><path d="M156.66 141.499C157.671 142.51 157.671 144.532 157.671 145.542 157.671 146.553 155.649 146.553 154.639 146.553 151.607 147.564 147.564 147.564 144.532 148.574 140.489 149.585 136.446 151.607 132.403 152.617 132.403 151.607 131.392 149.585 131.392 148.574 131.392 147.564 135.435 146.553 136.446 146.553 142.51 144.532 149.585 142.51 156.66 141.499Z" fill="#FFFFFF" transform="matrix(1 0 0 1.00065 0 0.505682)"/><path d="M177.885 140.489C177.885 140.489 181.928 140.489 183.949 141.499 183.949 141.499 184.96 142.51 184.96 142.51 184.96 142.51 184.96 143.521 184.96 144.532 184.96 144.532 184.96 145.542 184.96 146.553 179.906 146.553 177.885 145.542 176.874 145.542L166.767 145.542C165.756 145.542 162.724 145.542 159.692 146.553 158.681 145.542 158.681 144.532 158.681 143.521 158.681 143.521 158.681 142.51 158.681 142.51 160.703 142.51 164.746 141.499 164.746 141.499L177.885 141.499Z" fill="#FFFFFF" transform="matrix(1 0 0 1.00065 0 0.505682)"/><path d="M140.489 138.467C140.489 138.467 140.489 138.467 140.489 138.467 141.499 139.478 142.51 141.499 142.51 141.499L142.51 142.51 124.317 149.585C123.307 148.574 123.307 146.553 123.307 146.553 123.307 145.542 125.328 144.532 126.339 144.532 126.339 143.521 137.457 138.467 140.489 138.467Z" fill="#FFFFFF" transform="matrix(1 0 0 1.00065 0 0.505682)"/><path d="M202.142 137.457C203.153 137.457 221.345 143.521 221.345 145.542 221.345 145.542 220.335 147.564 220.335 148.574 220.335 148.574 220.335 148.574 219.324 148.574 218.313 148.574 211.238 145.542 206.185 143.521 204.163 142.51 202.142 142.51 200.121 141.499 200.121 141.499 199.11 140.489 199.11 140.489 200.121 140.489 201.131 139.478 202.142 137.457 201.131 138.467 201.131 137.457 202.142 137.457Z" fill="#FFFFFF" transform="matrix(1 0 0 1.00065 0 0.505682)"/><path d="M125.328 136.446C125.328 136.446 125.328 136.446 125.328 136.446 126.339 137.457 127.349 139.478 127.349 140.489 127.349 141.499 122.296 143.521 121.285 143.521 121.285 143.521 119.264 140.489 119.264 139.478 119.264 138.467 124.317 136.446 125.328 136.446Z" fill="#FFFFFF" transform="matrix(1 0 0 1.00065 0 0.505682)"/><path d="M217.303 135.435C218.313 135.435 223.367 138.467 223.367 138.467 223.367 139.478 222.356 141.499 221.345 141.499 220.335 141.499 217.303 139.478 215.281 138.467 215.281 138.467 215.281 138.467 215.281 137.457 215.281 137.457 216.292 135.435 216.292 135.435 216.292 136.446 217.303 135.435 217.303 135.435Z" fill="#FFFFFF" transform="matrix(1 0 0 1.00065 0 0.505682)"/><path d="M175.864 133.414C176.874 133.414 178.896 133.414 182.939 133.414 185.971 133.414 200.121 135.435 200.121 137.457 200.121 138.467 199.11 140.489 199.11 141.499 196.078 140.489 193.046 140.489 190.013 139.478 185.971 138.467 176.874 138.467 176.874 138.467L173.842 138.467C173.842 138.467 172.831 137.457 172.831 137.457 172.831 137.457 172.831 137.457 172.831 135.435 172.831 133.414 173.842 133.414 175.864 133.414Z" fill="#FFFFFF" transform="matrix(1 0 0 1.00065 0 0.505682)"/><path d="M169.799 133.414C170.81 133.414 170.81 133.414 170.81 133.414 170.81 133.414 170.81 134.424 170.81 137.457 170.81 137.457 170.81 137.457 169.799 138.467L165.756 138.467C160.703 138.467 144.532 141.499 142.51 141.499 142.51 140.489 141.499 138.467 141.499 138.467L141.499 137.457C147.564 135.435 153.628 134.424 159.692 134.424 164.746 133.414 168.789 133.414 169.799 133.414Z" fill="#FFFFFF" transform="matrix(1 0 0 1.00065 0 0.505682)"/><path d="M209.217 133.414 209.217 133.414C210.228 133.414 215.281 135.435 215.281 135.435 215.281 136.446 214.271 138.467 213.26 138.467 212.249 138.467 210.228 137.457 208.206 136.446 208.206 136.446 208.206 135.435 208.206 135.435 208.206 135.435 208.206 134.424 209.217 133.414Z" fill="#FFFFFF" transform="matrix(1 0 0 1.00065 0 0.505682)"/><path d="M133.414 133.414C134.424 133.414 135.435 137.457 135.435 137.457 135.435 137.457 135.435 138.467 135.435 138.467 133.414 139.478 130.382 140.489 130.382 140.489 129.371 140.489 128.36 137.457 128.36 136.446 127.349 135.435 132.403 133.414 133.414 133.414Z" fill="#FFFFFF" transform="matrix(1 0 0 1.00065 0 0.505682)"/><path d="M187.992 128.36 189.003 128.36C190.013 128.36 193.046 129.371 194.056 129.371 194.056 129.371 194.056 129.371 194.056 130.382 194.056 131.392 193.046 134.424 193.046 134.424 192.035 134.424 189.003 133.414 187.992 133.414 187.992 133.414 186.981 132.403 186.981 132.403 186.981 131.392 186.981 129.371 187.992 128.36Z" fill="#FFFFFF" transform="matrix(1 0 0 1.00065 0 0.505682)"/><path d="M154.639 128.36C155.649 128.36 155.649 131.392 155.649 131.392 155.649 133.414 149.585 133.414 148.574 133.414 148.574 132.403 147.564 130.382 147.564 130.382 147.564 129.371 153.628 128.36 154.639 128.36Z" fill="#FFFFFF" transform="matrix(1 0 0 1.00065 0 0.505682)"/><path d="M178.896 127.349C179.906 127.349 185.971 126.339 185.971 129.371 185.971 129.371 185.971 131.392 185.971 132.403 185.971 132.403 184.96 132.403 183.949 132.403 181.928 132.403 180.917 132.403 178.896 131.392 178.896 131.392 178.896 130.382 178.896 130.382 178.896 129.371 178.896 128.36 178.896 127.349Z" fill="#FFFFFF" transform="matrix(1 0 0 1.00065 0 0.505682)"/><path d="M161.714 127.349 163.735 127.349C164.746 128.36 164.746 129.371 164.746 130.382 164.746 130.382 164.746 131.392 164.746 131.392 163.735 132.403 161.714 132.403 160.703 132.403L157.671 132.403C157.671 131.392 156.66 129.371 156.66 129.371 156.66 127.349 159.692 127.349 161.714 127.349Z" fill="#FFFFFF" transform="matrix(1 0 0 1.00065 0 0.505682)"/><path d="M211.238 126.339C212.249 126.339 226.399 131.392 226.399 132.403 226.399 132.403 225.388 135.435 224.378 136.446 219.324 134.424 214.271 132.403 209.217 130.382 209.217 130.382 209.217 130.382 209.217 130.382 209.217 129.371 210.228 126.339 211.238 126.339Z" fill="#FFFFFF" transform="matrix(1 0 0 1.00065 0 0.505682)"/><path d="M131.392 126.339C132.403 126.339 133.414 130.382 133.414 130.382 133.414 130.382 133.414 131.392 132.403 131.392 129.371 132.403 124.317 134.424 124.317 134.424 124.317 134.424 120.274 136.446 119.264 136.446 118.253 135.435 117.242 133.414 117.242 132.403 116.232 131.392 131.392 126.339 131.392 126.339Z" fill="#FFFFFF" transform="matrix(1 0 0 1.00065 0 0.505682)"/><path d="M180.917 120.274C182.939 120.274 194.056 122.296 196.078 122.296 196.078 122.296 196.078 122.296 196.078 123.307 196.078 124.317 196.078 126.339 194.056 127.349L178.896 125.328C178.896 123.307 178.896 122.296 178.896 121.285 178.896 120.274 179.906 120.274 180.917 120.274Z" fill="#FFFFFF" transform="matrix(1 0 0 1.00065 0 0.505682)"/><path d="M161.714 120.274C161.714 120.274 164.746 120.274 164.746 121.285 164.746 121.285 164.746 123.307 164.746 124.317 164.746 124.317 164.746 125.328 163.735 125.328 158.681 125.328 153.628 126.339 147.564 127.349 147.564 126.339 146.553 124.317 146.553 123.307 146.553 123.307 146.553 122.296 146.553 122.296 148.574 121.285 159.692 120.274 161.714 120.274Z" fill="#FFFFFF" transform="matrix(1 0 0 1.00065 0 0.505682)"/><path d="M156.66 108.146 187.992 108.146C189.003 108.146 191.024 109.157 192.035 111.178L192.035 111.178 152.617 111.178C152.617 110.167 155.649 108.146 156.66 108.146Z" fill="#FFFFFF" transform="matrix(1 0 0 1.00065 0 0.505682)"/><path d="M158.681 105.114 184.96 105.114C184.96 105.114 185.971 106.125 185.971 106.125 185.971 106.125 184.96 106.125 184.96 106.125L157.671 106.125C157.671 106.125 157.671 106.125 157.671 105.114 157.671 105.114 158.681 106.125 158.681 105.114Z" fill="#FFFFFF" transform="matrix(1 0 0 1.00065 0 0.505682)"/><path d="M162.724 102.082 181.928 102.082C181.928 102.082 183.949 103.092 183.949 103.092 183.949 103.092 182.939 104.103 182.939 104.103L163.735 104.103C162.724 104.103 161.714 104.103 161.714 103.092 161.714 102.082 161.714 102.082 162.724 102.082Z" fill="#FFFFFF" transform="matrix(1 0 0 1.00065 0 0.505682)"/><path d="M166.767 98.0389 178.896 98.0389C179.906 98.0389 180.917 99.0496 180.917 99.0496 180.917 99.0496 180.917 100.06 179.906 100.06L165.756 100.06C164.746 100.06 163.735 99.0496 163.735 98.0389 163.735 98.0389 165.756 98.0389 166.767 98.0389Z" fill="#FFFFFF" transform="matrix(1 0 0 1.00065 0 0.505682)"/><path d="M163.735 91.9746C167.778 91.9746 169.799 92.9853 172.831 92.9853 174.853 92.9853 177.885 91.9746 180.917 91.9746L180.917 92.9853C180.917 92.9853 179.906 95.0067 178.896 96.0175 177.885 96.0175 176.874 96.0175 175.864 96.0175L164.746 96.0175C164.746 96.0175 164.746 95.0067 163.735 95.0067 163.735 95.0067 162.724 92.9853 163.735 91.9746L163.735 91.9746Z" fill="#FFFFFF" transform="matrix(1 0 0 1.00065 0 0.505682)"/><path d="M150.596 83.8889C151.607 83.8889 154.639 85.9104 154.639 86.9211L153.628 86.9211C152.617 86.9211 149.585 84.8996 149.585 83.8889 149.585 83.8889 150.596 83.8889 150.596 83.8889Z" fill="#FFFFFF" transform="matrix(1 0 0 1.00065 0 0.505682)"/><path d="M155.649 82.8782C157.671 82.8782 159.692 86.9211 159.692 87.9318 159.692 87.9318 159.692 87.9318 158.681 87.9318 156.66 87.9318 153.628 84.8996 153.628 83.8889 154.639 83.8889 155.649 82.8782 155.649 82.8782Z" fill="#FFFFFF" transform="matrix(1 0 0 1.00065 0 0.505682)"/><path d="M161.714 82.8782C163.735 82.8782 163.735 86.9211 163.735 86.9211 163.735 87.9318 162.724 87.9318 162.724 88.9425 161.714 88.9425 159.692 85.9104 159.692 84.8996 160.703 83.8889 160.703 82.8782 161.714 82.8782Z" fill="#FFFFFF" transform="matrix(1 0 0 1.00065 0 0.505682)"/><path d="M189.003 82.8782C190.013 82.8782 190.013 83.8889 189.003 82.8782 190.013 84.8996 186.981 87.9318 185.971 87.9318L184.96 87.9318C184.96 87.9318 184.96 87.9318 184.96 86.9211 184.96 86.9211 186.981 82.8782 189.003 82.8782Z" fill="#FFFFFF" transform="matrix(1 0 0 1.00065 0 0.505682)"/><path d="M183.949 82.8782C184.96 82.8782 184.96 83.8889 184.96 83.8889 184.96 84.8996 182.939 87.9318 180.917 87.9318 179.906 87.9318 179.906 86.9211 179.906 86.9211 179.906 86.9211 181.928 82.8782 183.949 82.8782Z" fill="#FFFFFF" transform="matrix(1 0 0 1.00065 0 0.505682)"/><path d="M177.885 82.8782C178.896 82.8782 179.906 84.8996 179.906 84.8996 179.906 85.9104 178.896 89.9532 177.885 89.9532 176.874 89.9532 176.874 86.9211 176.874 86.9211 175.864 85.9104 175.864 82.8782 177.885 82.8782Z" fill="#FFFFFF" transform="matrix(1 0 0 1.00065 0 0.505682)"/><path d="M172.831 82.8782C174.853 82.8782 174.853 84.8996 174.853 85.9104 174.853 86.9211 174.853 89.9532 172.831 89.9532 170.81 89.9532 170.81 85.9104 170.81 85.9104 170.81 83.8889 170.81 82.8782 172.831 82.8782Z" fill="#FFFFFF" transform="matrix(1 0 0 1.00065 0 0.505682)"/><path d="M166.767 82.8782C168.789 82.8782 168.789 84.8996 168.789 85.9104 168.789 86.9211 167.778 88.9425 167.778 88.9425 165.756 88.9425 165.756 84.8996 165.756 84.8996 165.756 83.8889 165.756 82.8782 166.767 82.8782Z" fill="#FFFFFF" transform="matrix(1 0 0 1.00065 0 0.505682)"/><path d="M132.403 69.739C134.424 69.739 134.424 71.7604 134.424 72.7711 134.424 76.814 129.371 77.8247 127.349 77.8247 123.307 77.8247 116.232 73.7818 113.2 69.739L132.403 69.739Z" fill="#FFFFFF" transform="matrix(1 0 0 1.00065 0 0.505682)"/><path d="M208.206 68.7283C208.206 68.7283 204.163 77.8247 196.078 81.8675 196.078 81.8675 194.056 80.8568 194.056 80.8568 193.046 80.8568 192.035 81.8675 191.024 81.8675 190.013 81.8675 189.003 80.8568 189.003 80.8568 187.992 80.8568 186.981 81.8675 186.981 81.8675 186.981 81.8675 184.96 80.8568 183.949 80.8568 182.939 80.8568 180.917 81.8675 180.917 81.8675 180.917 81.8675 178.896 80.8568 177.885 80.8568 176.874 80.8568 175.864 81.8675 174.853 81.8675 173.842 81.8675 172.831 80.8568 171.821 80.8568 170.81 80.8568 169.799 81.8675 169.799 81.8675 168.789 81.8675 167.778 80.8568 167.778 80.8568 166.767 80.8568 164.746 81.8675 164.746 81.8675 163.735 81.8675 162.724 80.8568 161.714 80.8568 161.714 80.8568 159.692 81.8675 159.692 81.8675 158.681 81.8675 156.66 80.8568 156.66 80.8568 155.649 80.8568 154.639 81.8675 153.628 81.8675 153.628 81.8675 150.596 80.8568 150.596 80.8568 148.574 80.8568 147.564 82.8782 147.564 82.8782 146.553 82.8782 146.553 81.8675 145.542 81.8675 142.51 79.8461 140.489 75.8033 138.467 73.7818 137.457 72.7711 136.446 68.7283 136.446 68.7283L208.206 68.7283Z" fill="#FFFFFF" transform="matrix(1 0 0 1.00065 0 0.505682)"/><path d="M215.281 65.6962 215.281 67.7176C215.281 66.7069 215.281 67.7176 214.271 67.7176 213.26 67.7176 137.457 67.7176 137.457 67.7176 136.446 67.7176 135.435 67.7176 134.424 67.7176L134.424 65.6962 215.281 65.6962Z" fill="#FFFFFF" transform="matrix(1 0 0 1.00065 0 0.505682)"/><path d="M104.103 62.664C105.114 62.664 106.125 65.6962 109.157 65.6962L131.392 65.6962C131.392 65.6962 132.403 66.7069 132.403 66.7069L106.125 66.7069C105.114 66.7069 102.082 64.6854 102.082 63.6747 102.082 62.664 104.103 62.664 104.103 62.664Z" fill="#FFFFFF" transform="matrix(1 0 0 1.00065 0 0.505682)"/><path d="M182.939 57.6105 182.939 57.6105C183.949 57.6105 187.992 60.6426 190.013 62.664 190.013 62.664 189.003 63.6747 189.003 63.6747 185.971 63.6747 181.928 59.6319 182.939 57.6105 181.928 57.6105 182.939 57.6105 182.939 57.6105Z" fill="#FFFFFF" transform="matrix(1 0 0 1.00065 0 0.505682)"/><path d="M173.842 56.5998C174.853 56.5998 175.864 59.6319 175.864 59.6319 175.864 61.6533 174.853 61.6533 173.842 61.6533 171.821 62.664 171.821 61.6533 171.821 61.6533 171.821 60.6426 172.831 56.5998 173.842 56.5998Z" fill="#FFFFFF" transform="matrix(1 0 0 1.00065 0 0.505682)"/><path d="M176.874 56.5998 176.874 56.5998C178.896 56.5998 181.928 60.6426 181.928 61.6533 181.928 62.664 180.917 62.664 179.906 62.664 177.885 62.664 175.864 58.6212 175.864 57.6105 176.874 57.6105 176.874 57.6105 176.874 56.5998Z" fill="#FFFFFF" transform="matrix(1 0 0 1.00065 0 0.505682)"/><path d="M165.756 56.5998C165.756 56.5998 165.756 57.6105 165.756 56.5998 165.756 58.6212 162.724 62.664 161.714 62.664L159.692 62.664C159.692 62.664 159.692 62.664 159.692 61.6533 158.681 61.6533 163.735 57.6105 165.756 56.5998Z" fill="#FFFFFF" transform="matrix(1 0 0 1.00065 0 0.505682)"/><path d="M169.799 56.5998C170.81 56.5998 170.81 57.6105 169.799 56.5998 170.81 58.6212 168.789 62.664 166.767 62.664 165.756 62.664 164.746 62.664 164.746 61.6533 165.756 60.6426 167.778 56.5998 169.799 56.5998Z" fill="#FFFFFF" transform="matrix(1 0 0 1.00065 0 0.505682)"/><path d="M166.767 52.5569 182.939 52.5569C182.939 52.5569 183.949 53.5676 183.949 53.5676 183.949 53.5676 182.939 53.5676 182.939 54.5783L166.767 54.5783C166.767 54.5783 166.767 54.5783 165.756 54.5783L165.756 53.5676C164.746 52.5569 165.756 52.5569 166.767 52.5569Z" fill="#FFFFFF" transform="matrix(1 0 0 1.00065 0 0.505682)"/><path d="M226.399 51.5462C232.463 51.5462 239.538 54.5783 239.538 61.6533 239.538 69.739 227.41 76.814 220.335 77.8247 217.303 78.8354 214.271 79.8461 211.238 79.8461 206.185 80.8568 200.121 81.8675 196.078 85.9104 196.078 85.9104 196.078 85.9104 196.078 84.8996 196.078 81.8675 205.174 78.8354 205.174 78.8354 212.249 76.814 219.324 75.8033 226.399 71.7604 232.463 68.7283 235.495 65.6962 235.495 60.6426 235.495 55.5891 229.431 53.5676 226.399 53.5676 224.378 53.5676 219.324 54.5783 218.313 56.5998 218.313 56.5998 219.324 57.6105 219.324 57.6105 220.335 57.6105 220.335 59.6319 220.335 59.6319 220.335 61.6533 218.313 62.664 216.292 62.664 214.271 62.664 211.238 61.6533 211.238 58.6212 211.238 58.6212 212.249 56.5998 212.249 56.5998 217.303 53.5676 222.356 51.5462 226.399 51.5462Z" fill="#FFFFFF" transform="matrix(1 0 0 1.00065 0 0.505682)"/><path d="M173.842 43.4605C174.853 43.4605 176.874 44.4712 176.874 46.4927 176.874 48.5141 174.853 49.5248 173.842 49.5248 171.821 49.5248 170.81 47.5034 170.81 46.4927 170.81 44.4712 171.821 43.4605 173.842 43.4605Z" fill="#FFFFFF" transform="matrix(1 0 0 1.00065 0 0.505682)"/><path d="M149.585 37.3963C148.574 39.4177 145.542 39.4177 143.521 40.4284 141.499 41.4391 143.521 45.482 140.489 45.482 140.489 45.482 136.446 44.4712 135.435 44.4712 134.424 44.4712 134.424 44.4712 132.403 45.482 134.424 47.5034 136.446 48.5141 136.446 50.5355 136.446 50.5355 136.446 51.5462 136.446 51.5462 136.446 52.5569 132.403 54.5783 130.382 54.5783L124.317 54.5783C123.307 54.5783 121.285 56.5998 120.274 57.6105 119.264 56.5998 118.253 55.5891 118.253 54.5783 118.253 52.5569 121.285 53.5676 122.296 53.5676L125.328 53.5676C127.349 53.5676 129.371 51.5462 129.371 49.5248 129.371 46.4927 124.317 46.4927 124.317 42.4498 124.317 39.4177 127.349 39.4177 129.371 39.4177 130.382 39.4177 136.446 41.4391 137.457 41.4391 139.478 41.4391 141.499 39.4177 142.51 38.407 143.521 37.3963 145.542 37.3963 147.564 37.3963 148.574 38.407 148.574 38.407 149.585 37.3963Z" fill="#FFFFFF" transform="matrix(1 0 0 1.00065 0 0.505682)"/><path d="M172.831 310.288C175.864 310.288 178.896 312.309 178.896 315.342 178.896 342.631 179.906 342.631 178.896 342.631 178.896 343.641 178.896 344.652 178.896 345.663 178.896 345.663 179.906 347.684 179.906 349.706 180.917 354.759 185.971 357.791 190.013 357.791 202.142 357.791 226.399 341.62 235.495 332.524 234.485 331.513 232.463 329.491 231.453 328.481 231.453 328.481 229.431 326.459 229.431 325.449 229.431 324.438 243.581 316.352 243.581 316.352 245.603 315.342 247.624 314.331 248.635 312.309 249.645 311.299 253.688 308.267 254.699 308.267 255.71 308.267 254.699 314.331 254.699 314.331 254.699 316.352 253.688 320.395 253.688 321.406 253.688 321.406 252.678 325.449 252.678 326.459 252.678 329.491 249.645 335.556 248.635 337.577 248.635 338.588 247.624 338.588 247.624 338.588 245.603 338.588 240.549 334.545 239.538 334.545 238.528 334.545 228.42 344.652 224.378 347.684 221.345 349.706 219.324 351.727 216.292 353.749 212.249 359.813 181.928 383.059 171.821 383.059 161.714 383.059 131.392 359.813 126.339 355.77 124.317 353.749 121.285 351.727 118.253 349.706 114.21 345.663 104.103 336.566 103.092 336.566 102.082 336.566 98.0389 340.609 95.0067 340.609 95.0067 340.609 93.996 339.599 93.996 339.599 92.9853 337.577 89.9532 331.513 89.9532 328.481 89.9532 328.481 88.9425 324.438 88.9425 323.427 88.9425 323.427 87.9318 318.374 87.9318 316.352 87.9318 316.352 86.9211 310.288 87.9318 310.288 88.9425 310.288 92.9853 313.32 93.996 314.331 96.0175 315.342 97.0282 316.352 99.0496 318.374 100.06 318.374 113.2 326.459 113.2 327.47 113.2 328.481 111.178 330.502 111.178 330.502 110.167 330.502 108.146 333.534 107.135 334.545 116.232 343.641 140.489 359.813 152.617 359.813 156.66 359.813 161.714 356.781 162.724 351.727 162.724 350.716 163.735 348.695 163.735 347.684 163.735 347.684 163.735 345.663 163.735 344.652 163.735 344.652 163.735 344.652 163.735 317.363 163.735 313.32 166.767 312.309 168.789 312.309L172.831 312.309Z" fill="#FFFFFF" transform="matrix(1 0 0 1.00065 0 0.505682)"/><path d="M96.0175 225.388 96.0175 287.042C96.0175 287.042 102.082 292.095 127.349 286.031 127.349 286.031 151.607 276.935 170.81 288.052L170.81 224.378C170.81 224.378 158.681 213.26 129.371 221.345 129.371 221.345 110.167 227.41 102.082 225.388 93.996 223.367 96.0175 225.388 96.0175 225.388Z" fill="#FFFFFF" transform="matrix(1 0 0 1.00065 0 0.505682)"/><path d="M169.799 305.234C168.789 305.234 168.789 305.234 167.778 305.234 167.778 305.234 167.778 305.234 167.778 304.224 167.778 303.213 169.799 297.149 169.799 297.149 169.799 298.159 169.799 302.202 169.799 305.234Z" fill="#FFFFFF" transform="matrix(1 0 0 1.00065 0 0.505682)"/><path d="M170.81 297.149C170.81 298.159 171.821 298.159 171.821 299.17 171.821 301.192 171.821 303.213 171.821 303.213L171.821 305.234 169.799 305.234C169.799 304.224 169.799 304.224 169.799 304.224 169.799 304.224 169.799 304.224 169.799 304.224L169.799 299.17C169.799 299.17 169.799 299.17 169.799 299.17 170.81 298.159 170.81 297.149 170.81 297.149Z" fill="#FFFFFF" transform="matrix(1 0 0 1.00065 0 0.505682)"/><path d="M167.778 296.138 167.778 297.149C167.778 297.149 166.767 301.192 165.756 303.213L164.746 303.213C164.746 303.213 164.746 302.202 164.746 302.202 164.746 302.202 167.778 297.149 167.778 296.138Z" fill="#FFFFFF" transform="matrix(1 0 0 1.00065 0 0.505682)"/><path d="M166.767 296.138C165.756 298.159 164.746 300.181 163.735 302.202 163.735 302.202 163.735 302.202 162.724 302.202 161.714 302.202 161.714 302.202 161.714 301.192 161.714 300.181 165.756 296.138 166.767 296.138Z" fill="#FFFFFF" transform="matrix(1 0 0 1.00065 0 0.505682)"/><path d="M164.746 294.117 164.746 294.117C163.735 296.138 161.714 298.159 160.703 300.181 159.692 300.181 159.692 299.17 159.692 299.17 159.692 298.159 163.735 294.117 164.746 294.117Z" fill="#FFFFFF" transform="matrix(1 0 0 1.00065 0 0.505682)"/><path d="M246.613 225.388 246.613 287.042C246.613 287.042 240.549 292.095 215.281 286.031 215.281 286.031 191.024 276.935 171.821 288.052L171.821 224.378C171.821 224.378 183.949 214.271 213.26 221.345 213.26 221.345 232.463 227.41 240.549 225.388 248.635 223.367 246.613 225.388 246.613 225.388Z" fill="#FFFFFF" transform="matrix(1 0 0 1.00065 0 0.505682)"/><path d="M172.831 305.234C173.842 305.234 173.842 305.234 174.853 305.234 174.853 305.234 174.853 305.234 174.853 304.224 174.853 303.213 172.831 297.149 172.831 297.149 172.831 298.159 172.831 302.202 172.831 305.234Z" fill="#FFFFFF" transform="matrix(1 0 0 1.00065 0 0.505682)"/><path d="M174.853 296.138 174.853 297.149C174.853 297.149 175.864 301.192 176.874 303.213L177.885 303.213C177.885 303.213 177.885 302.202 177.885 302.202 177.885 302.202 174.853 297.149 174.853 296.138Z" fill="#FFFFFF" transform="matrix(1 0 0 1.00065 0 0.505682)"/><path d="M175.864 296.138C176.874 298.159 177.885 300.181 178.896 302.202 178.896 302.202 178.896 302.202 179.906 302.202 180.917 302.202 180.917 302.202 180.917 301.192 180.917 300.181 176.874 296.138 175.864 296.138Z" fill="#FFFFFF" transform="matrix(1 0 0 1.00065 0 0.505682)"/><path d="M249.645 226.399 249.645 290.074 248.635 289.063 247.624 288.052 247.624 224.378 249.645 226.399ZM252.678 227.41 252.678 293.106 250.656 291.084 250.656 226.399 252.678 227.41ZM254.699 229.431 254.699 297.149 253.688 296.138 252.678 295.127 252.678 229.431 254.699 229.431Z" fill="#FFFFFF" transform="matrix(1 0 0 1.00065 0 0.505682)"/><path d="M177.885 294.117 177.885 294.117C178.896 296.138 180.917 298.159 181.928 300.181 182.939 300.181 182.939 299.17 182.939 299.17 182.939 298.159 178.896 294.117 177.885 294.117Z" fill="#FFFFFF" transform="matrix(1 0 0 1.00065 0 0.505682)"/><path d="M256.72 231.453 258.742 231.453 258.742 302.202 183.949 302.202 183.949 302.202C180.917 306.245 176.874 309.277 171.821 309.277L171.821 309.277C171.821 309.277 171.821 309.277 171.821 309.277 166.767 309.277 161.714 306.245 159.692 302.202L159.692 302.202 83.8889 302.202 83.8889 231.453 85.9104 231.453 85.9104 299.17 158.681 299.17 158.681 300.181C160.703 304.224 165.756 307.256 171.821 308.267 176.874 308.267 181.928 305.234 184.96 300.181L184.96 299.17 257.731 299.17 257.731 231.453Z" fill="#FFFFFF" transform="matrix(1 0 0 1.00065 0 0.505682)"/><path d="M120.274 61.6533C120.274 62.2115 119.822 62.664 119.264 62.664 118.706 62.664 118.253 62.2115 118.253 61.6533 118.253 61.0951 118.706 60.6426 119.264 60.6426 119.822 60.6426 120.274 61.0951 120.274 61.6533Z" fill="#FFFFFF" transform="matrix(1 0 0 1.00065 0 0.505682)"/><path d="M194.056 83.8889C193.046 83.8889 190.013 85.9104 190.013 86.9211L191.024 86.9211C192.035 86.9211 195.067 84.8996 195.067 83.8889 195.067 83.8889 194.056 83.8889 194.056 83.8889Z" fill="#FFFFFF" transform="matrix(1 0 0 1.00065 0 0.505682)"/><path d="M170.81 221.345 164.746 217.303C164.746 216.292 164.746 213.26 164.746 212.249 164.746 208.206 167.778 207.196 169.799 207.196L171.821 207.196C174.853 207.196 177.885 209.217 177.885 212.249 177.885 213.26 177.885 216.292 177.885 217.303L170.81 221.345Z" fill="#FFFFFF" transform="matrix(1 0 0 1.00065 0 0.505682)"/><path d="M128.36 184.96 137.457 184.96 137.457 198.099 128.36 196.078Z" fill="#FFFFFF" transform="matrix(1 0 0 1.00065 0 0.505682)"/><path d="M113.2 185.971 126.339 185.971 126.339 195.067 113.2 193.046Z" fill="#FFFFFF" transform="matrix(1 0 0 1.00065 0 0.505682)"/><path d="M112.189 185.971 109.157 187.992 109.157 195.067 112.189 194.056Z" fill="#FFFFFF" transform="matrix(1 0 0 1.00065 0 0.505682)"/><path d="M132.403 185.971C132.403 185.971 132.403 185.971 132.403 185.971 134.424 185.971 135.435 186.981 135.435 187.992 135.435 189.003 134.424 190.013 133.414 190.013 133.414 190.013 132.403 189.003 131.392 189.003 132.403 189.003 133.414 189.003 133.414 187.992 133.414 186.981 133.414 185.971 132.403 185.971Z" transform="matrix(1 0 0 1.00065 0 0.505682)"/><path d="M132.403 191.024C132.403 191.024 132.403 191.024 132.403 191.024 134.424 191.024 135.435 192.035 135.435 193.046 135.435 194.056 134.424 195.067 133.414 195.067 133.414 195.067 132.403 194.056 131.392 194.056 132.403 194.056 133.414 194.056 133.414 193.046 133.414 192.035 133.414 192.035 132.403 191.024Z" transform="matrix(1 0 0 1.00065 0 0.505682)"/><path d="M112.189 194.056 126.339 196.078 126.339 198.099 110.167 196.078Z" fill="#FFFFFF" transform="matrix(1 0 0 1.00065 0 0.505682)"/><path d="M128.36 197.088 137.457 199.11 137.457 201.131 128.36 199.11Z" fill="#FFFFFF" transform="matrix(1 0 0 1.00065 0 0.505682)"/><path d="M139.478 199.11 170.81 204.163 170.81 206.185 139.478 201.131Z" fill="#FFFFFF" transform="matrix(1 0 0 1.00065 0 0.505682)"/><path d="M214.271 184.96 205.174 184.96 205.174 198.099 214.271 196.078Z" fill="#FFFFFF" transform="matrix(1 0 0 1.00065 0 0.505682)"/><path d="M229.431 185.971 216.292 185.971 216.292 195.067 229.431 193.046Z" fill="#FFFFFF" transform="matrix(1 0 0 1.00065 0 0.505682)"/><path d="M208.206 185.971C208.206 185.971 208.206 185.971 208.206 185.971 210.228 185.971 211.238 186.981 211.238 187.992 211.238 189.003 210.228 190.013 209.217 190.013 208.206 190.013 208.206 189.003 207.196 189.003 208.206 189.003 209.217 189.003 209.217 187.992 209.217 186.981 208.206 185.971 208.206 185.971Z" transform="matrix(1 0 0 1.00065 0 0.505682)"/><path d="M208.206 191.024C208.206 191.024 208.206 191.024 208.206 191.024 210.228 191.024 211.238 192.035 211.238 193.046 211.238 194.056 210.228 195.067 209.217 195.067 208.206 195.067 208.206 194.056 207.196 194.056 208.206 194.056 209.217 194.056 209.217 193.046 209.217 192.035 208.206 192.035 208.206 191.024Z" transform="matrix(1 0 0 1.00065 0 0.505682)"/><path d="M229.431 194.056 216.292 196.078 216.292 198.099 228.42 196.078Z" fill="#FFFFFF" transform="matrix(1 0 0 1.00065 0 0.505682)"/><path d="M214.271 197.088 205.174 199.11 205.174 201.131 214.271 199.11Z" fill="#FFFFFF" transform="matrix(1 0 0 1.00065 0 0.505682)"/><path d="M170.81 203.153 139.478 197.088 139.478 185.971 170.81 185.971 203.153 185.971 203.153 197.088Z" fill="#FFFFFF" transform="matrix(1 0 0 1.00065 0 0.505682)"/><path d="M203.153 199.11 170.81 204.163 170.81 206.185 203.153 201.131Z" fill="#FFFFFF" transform="matrix(1 0 0 1.00065 0 0.505682)"/><path d="M184.96 239.538C189.003 239.538 191.024 241.56 191.024 244.592 191.024 245.603 190.013 246.613 189.003 248.635 190.013 250.656 192.035 251.667 192.035 253.688 192.035 257.731 186.981 258.742 183.949 258.742 182.939 258.742 181.928 258.742 177.885 258.742 177.885 258.742 177.885 258.742 176.874 258.742 176.874 257.731 177.885 257.731 177.885 256.72L177.885 243.581C177.885 242.57 176.874 242.57 176.874 241.56 178.896 240.549 179.906 239.538 184.96 239.538Z" transform="matrix(1 0 0 1.00065 0 0.505682)"/><path d="M202.142 241.56C207.196 241.56 209.217 246.613 209.217 249.645 209.217 253.688 206.185 258.742 201.131 258.742 196.078 258.742 193.046 253.688 193.046 250.656 194.056 246.613 197.088 241.56 202.142 241.56Z" transform="matrix(1 0 0 1.00065 0 0.505682)"/><path d="M212.249 241.56C219.324 241.56 217.303 246.613 221.345 251.667 222.356 250.656 222.356 247.624 222.356 246.613 222.356 245.603 222.356 245.603 221.345 243.581 221.345 243.581 221.345 243.581 222.356 243.581 223.367 243.581 225.388 243.581 226.399 244.592 223.367 246.613 224.378 249.645 224.378 251.667 224.378 255.71 224.378 258.742 223.367 260.763 219.324 256.72 218.313 251.667 215.281 248.635 215.281 248.635 215.281 248.635 215.281 249.645 215.281 251.667 214.271 256.72 214.271 256.72 214.271 257.731 215.281 258.742 216.292 259.753 215.281 259.753 213.26 259.753 211.238 259.753 211.238 259.753 211.238 259.753 211.238 259.753 212.249 257.731 212.249 254.699 212.249 252.678 212.249 252.678 213.26 245.603 213.26 245.603 213.26 244.592 212.249 243.581 211.238 242.57 212.249 242.57 212.249 241.56 212.249 241.56Z" transform="matrix(1 0 0 1.00065 0 0.505682)"/><path d="M230.442 244.592C232.463 244.592 235.495 244.592 235.495 244.592 235.495 244.592 235.495 244.592 235.495 244.592 235.495 244.592 234.485 245.603 234.485 245.603 234.485 245.603 235.495 249.645 236.506 251.667 237.517 253.688 237.517 257.731 240.549 259.753L240.549 260.763C238.528 260.763 236.506 260.763 234.485 260.763 234.485 260.763 234.485 260.763 234.485 260.763 234.485 260.763 235.495 259.753 235.495 258.742 235.495 257.731 234.485 255.71 233.474 255.71L230.442 255.71C230.442 255.71 229.431 257.731 229.431 258.742 229.431 258.742 229.431 259.753 230.442 260.763 228.42 260.763 227.41 260.763 225.388 260.763 225.388 259.753 227.41 259.753 227.41 258.742 229.431 254.699 231.453 246.613 231.453 246.613 231.453 245.603 230.442 245.603 230.442 244.592 230.442 244.592 230.442 244.592 230.442 244.592Z" transform="matrix(1 0 0 1.00065 0 0.505682)"/><path d="M203.153 242.57C205.174 242.57 206.185 244.592 206.185 246.613 206.185 248.635 206.185 248.635 206.185 249.645 206.185 249.645 205.174 257.731 202.142 257.731 199.11 257.731 198.099 252.678 198.099 251.667 198.099 249.645 199.11 242.57 203.153 242.57Z" fill="#FFFFFF" transform="matrix(1 0 0 1.00065 0 0.505682)"/><path d="M232.463 249.645C232.463 249.645 234.485 252.678 234.485 253.688 234.485 253.688 234.485 253.688 234.485 254.699L231.453 254.699C231.453 254.699 231.453 254.699 231.453 253.688 231.453 252.678 231.453 250.656 232.463 249.645Z" fill="#FFFFFF" transform="matrix(1 0 0 1.00065 0 0.505682)"/><path d="M183.949 249.645C185.971 249.645 186.981 251.667 186.981 252.678 186.981 254.699 185.971 256.72 183.949 256.72 182.939 256.72 182.939 256.72 181.928 255.71L181.928 250.656C182.939 249.645 182.939 249.645 183.949 249.645Z" fill="#FFFFFF" transform="matrix(1 0 0 1.00065 0 0.505682)"/><path d="M184.96 241.56C186.981 241.56 187.992 242.57 187.992 244.592 187.992 246.613 186.981 247.624 184.96 247.624 183.949 247.624 183.949 247.624 183.949 246.613 183.949 242.57 183.949 241.56 183.949 241.56 183.949 241.56 183.949 241.56 184.96 241.56Z" fill="#FFFFFF" transform="matrix(1 0 0 1.00065 0 0.505682)"/><path d="M154.639 239.538 158.681 239.538C158.681 239.538 158.681 243.581 158.681 243.581 157.671 243.581 157.671 241.56 155.649 240.549 155.649 240.549 154.639 240.549 154.639 240.549 153.628 240.549 151.607 240.549 151.607 242.57 151.607 246.613 160.703 246.613 160.703 252.678 160.703 255.71 158.681 257.731 155.649 257.731 154.639 257.731 151.607 256.72 150.596 256.72 149.585 255.71 149.585 254.699 149.585 252.678 149.585 252.678 149.585 251.667 149.585 250.656 150.596 252.678 152.617 254.699 155.649 254.699 156.66 254.699 157.671 253.688 157.671 252.678 157.671 248.635 148.574 248.635 148.574 242.57 149.585 241.56 151.607 239.538 154.639 239.538Z" transform="matrix(1 0 0 1.00065 0 0.505682)"/><path d="M143.521 241.56C144.532 241.56 144.532 241.56 144.532 242.57L144.532 246.613C143.521 245.603 143.521 244.592 142.51 244.592 141.499 243.581 140.489 243.581 139.478 243.581 139.478 243.581 136.446 243.581 136.446 244.592 136.446 246.613 136.446 247.624 136.446 247.624 136.446 247.624 136.446 249.645 137.457 249.645 138.467 249.645 139.478 248.635 140.489 247.624 140.489 247.624 140.489 248.635 140.489 248.635 140.489 248.635 140.489 248.635 140.489 252.678 139.478 251.667 138.467 250.656 137.457 250.656 136.446 250.656 136.446 251.667 136.446 251.667 136.446 253.688 136.446 254.699 136.446 254.699 136.446 255.71 136.446 256.72 136.446 256.72 136.446 257.731 137.457 257.731 138.467 257.731 140.489 257.731 143.521 256.72 144.532 253.688 144.532 253.688 144.532 253.688 144.532 254.699 144.532 254.699 144.532 256.72 143.521 257.731 140.489 258.742 134.424 259.753 133.414 259.753L130.382 259.753C130.382 259.753 131.392 258.742 131.392 258.742 131.392 257.731 131.392 256.72 131.392 256.72L130.382 245.603C130.382 244.592 129.371 243.581 128.36 242.57 128.36 242.57 128.36 241.56 128.36 241.56 135.435 242.57 142.51 241.56 143.521 241.56Z" transform="matrix(1 0 0 1.00065 0 0.505682)"/><path d="M124.317 243.581C128.36 243.581 130.382 245.603 130.382 248.635 130.382 252.678 128.36 254.699 122.296 254.699 121.285 254.699 121.285 256.72 121.285 256.72 121.285 256.72 121.285 259.753 122.296 260.763 122.296 260.763 123.307 261.774 124.317 261.774 123.307 262.785 121.285 262.785 120.274 262.785 117.242 262.785 117.242 262.785 117.242 262.785 117.242 262.785 118.253 261.774 118.253 261.774 118.253 260.763 118.253 259.753 118.253 258.742L118.253 247.624C118.253 246.613 118.253 246.613 117.242 245.603 118.253 244.592 121.285 243.581 124.317 243.581Z" transform="matrix(1 0 0 1.00065 0 0.505682)"/><path d="M107.135 244.592C108.146 244.592 108.146 244.592 112.189 244.592 112.189 245.603 112.189 246.613 112.189 247.624 112.189 247.624 112.189 248.635 112.189 249.645 111.178 248.635 111.178 247.624 110.167 247.624 109.157 246.613 108.146 246.613 107.135 246.613 106.125 246.613 105.114 246.613 105.114 248.635 105.114 250.656 112.189 253.688 111.178 254.699 111.178 254.699 112.189 255.71 112.189 255.71 112.189 255.71 113.2 256.72 113.2 257.731 113.2 257.731 114.21 257.731 114.21 258.742 114.21 258.742 114.21 258.742 114.21 258.742 114.21 258.742 114.21 258.742 114.21 259.753 114.21 259.753 114.21 259.753 114.21 260.763 114.21 260.763 114.21 260.763 114.21 260.763 113.2 261.774 113.2 262.785 112.189 263.795 111.178 262.785 109.157 262.785 109.157 262.785 108.146 262.785 106.125 261.774 105.114 261.774 104.103 261.774 104.103 261.774 103.092 261.774 103.092 261.774 103.092 260.763 103.092 257.731 103.092 257.731 103.092 256.72 104.103 256.72 106.125 258.742 107.135 261.774 109.157 261.774 110.167 261.774 111.178 260.763 111.178 259.753 111.178 255.71 103.092 255.71 103.092 249.645 102.082 247.624 104.103 244.592 107.135 244.592Z" transform="matrix(1 0 0 1.00065 0 0.505682)"/><path d="M123.307 245.603C125.328 245.603 126.339 248.635 126.339 249.645 126.339 251.667 125.328 253.688 123.307 253.688 123.307 253.688 121.285 253.688 121.285 252.678 121.285 249.645 121.285 248.635 121.285 248.635 121.285 245.603 121.285 245.603 123.307 245.603Z" fill="#FFFFFF" transform="matrix(1 0 0 1.00065 0 0.505682)"/><path d="M170.81 416.413C137.457 402.263 25.2678 345.663 25.2678 214.271L25.2678 200.121C33.3534 198.099 52.5569 192.035 59.6319 190.013 59.6319 190.013 71.7604 184.96 91.9746 193.046 91.9746 193.046 125.328 207.196 160.703 210.228 161.714 210.228 161.714 216.292 161.714 217.303L160.703 217.303C159.692 217.303 159.692 217.303 158.681 217.303 154.639 216.292 151.607 216.292 146.553 216.292 139.478 216.292 138.467 217.303 129.371 218.313 128.36 218.313 123.307 219.324 121.285 220.335 116.232 222.356 110.167 223.367 105.114 223.367 104.103 223.367 100.06 222.356 98.0389 222.356 96.0175 222.356 93.996 222.356 93.996 222.356 92.9853 222.356 86.9211 227.41 84.8996 228.42 83.8889 228.42 80.8568 227.41 80.8568 229.431L80.8568 302.202 156.66 302.202C157.671 302.202 161.714 309.277 161.714 309.277L161.714 342.631C161.714 342.631 160.703 345.663 160.703 346.674 160.703 346.674 158.681 350.716 157.671 351.727 155.649 353.749 153.628 353.749 151.607 353.749 141.499 353.749 118.253 338.588 111.178 330.502 111.178 330.502 116.232 325.449 116.232 324.438 116.232 322.417 111.178 320.395 110.167 320.395 109.157 320.395 108.146 319.384 107.135 318.374 105.114 317.363 102.082 315.342 99.0496 313.32 98.0389 313.32 90.9639 307.256 87.9318 307.256 85.9104 307.256 84.8996 310.288 84.8996 311.299L84.8996 319.384C84.8996 319.384 85.9104 324.438 85.9104 327.47 86.9211 330.502 87.9318 333.534 88.9425 337.577 88.9425 337.577 91.9746 343.641 93.996 343.641 93.996 343.641 102.082 338.588 102.082 338.588 103.092 338.588 108.146 344.652 109.157 345.663 112.189 348.695 115.221 351.727 119.264 354.759 124.317 358.802 130.382 362.845 135.435 366.888 137.457 367.898 139.478 369.92 141.499 370.931 144.532 372.952 147.564 374.973 150.596 376.995 151.607 378.006 153.628 378.006 154.639 379.016 158.681 381.038 164.746 385.081 168.789 385.081L171.821 385.081C175.864 385.081 181.928 381.038 185.971 379.016 186.981 378.006 189.003 378.006 190.013 376.995 193.046 374.973 196.078 372.952 199.11 370.931 201.131 369.92 203.153 367.898 205.174 366.888 210.228 362.845 216.292 358.802 221.345 354.759 225.388 351.727 228.42 347.684 231.453 345.663 232.463 344.652 237.517 338.588 238.528 338.588 238.528 338.588 246.613 343.641 246.613 343.641 248.635 343.641 250.656 337.577 251.667 337.577 252.678 334.545 253.688 330.502 254.699 327.47 255.71 325.449 255.71 320.395 255.71 319.384L255.71 311.299C255.71 310.288 254.699 308.267 252.678 308.267 249.645 308.267 242.57 315.342 240.549 316.352 237.517 318.374 235.495 319.384 232.463 321.406 231.453 322.417 230.442 322.417 229.431 323.427 228.42 323.427 223.367 325.449 223.367 327.47 223.367 328.481 228.42 333.534 228.42 333.534 221.345 341.62 198.099 356.781 187.992 356.781 185.971 356.781 183.949 356.781 181.928 354.759 180.917 352.738 178.896 349.706 178.896 349.706 178.896 349.706 177.885 346.674 177.885 345.663L177.885 312.309C177.885 312.309 181.928 305.234 182.939 305.234L258.742 305.234 258.742 232.463C258.742 230.442 254.699 231.453 254.699 230.442 252.678 229.431 247.624 224.378 245.603 224.378 244.592 224.378 241.56 224.378 239.538 225.388 237.517 225.388 235.495 226.399 232.463 226.399 227.41 224.378 221.345 226.399 216.292 223.367 215.281 222.356 210.228 221.345 209.217 221.345 200.121 220.335 200.121 219.324 193.046 219.324 189.003 219.324 184.96 219.324 180.917 219.324 179.906 219.324 179.906 219.324 178.896 219.324L177.885 219.324C177.885 218.313 176.874 213.26 178.896 213.26 214.271 210.228 247.624 196.078 247.624 196.078 268.849 187.992 279.967 193.046 279.967 193.046 288.052 195.067 307.256 201.131 313.32 203.153L313.32 216.292C316.352 345.663 204.163 403.273 170.81 416.413Z" fill="#009ADA" transform="matrix(1 0 0 1.00065 0 0.505682)"/><path d="M89.9532 294.117 88.9425 296.138 88.9425 229.431 89.9532 228.42 89.9532 294.117ZM95.0067 225.388 95.0067 288.052 92.9853 290.074 92.9853 226.399 95.0067 225.388ZM91.9746 227.41 91.9746 291.084 89.9532 293.106 89.9532 228.42 91.9746 227.41Z" fill="#FFFFFF" transform="matrix(1 0 0 1.00065 0 0.505682)"/><path d="M91.9746 295.127C91.9746 295.127 92.9853 295.127 92.9853 295.127 93.996 295.127 95.0067 296.138 97.0282 296.138 102.082 297.149 109.157 297.149 118.253 296.138L123.307 295.127 133.414 293.106C133.414 293.106 137.457 292.095 142.51 292.095 147.564 292.095 154.639 292.095 159.692 296.138L159.692 296.138C154.639 293.106 148.574 292.095 143.521 293.106 140.489 293.106 137.457 294.117 136.446 294.117 138.467 294.117 141.499 293.106 144.532 293.106 149.585 293.106 155.649 294.117 159.692 296.138L159.692 296.138C155.649 293.106 149.585 293.106 144.532 293.106 139.478 293.106 135.435 294.117 135.435 294.117L124.317 296.138 119.264 297.149C109.157 298.159 102.082 298.159 98.0389 297.149 96.0175 297.149 93.996 296.138 91.9746 295.127 92.9853 296.138 91.9746 296.138 91.9746 295.127L91.9746 295.127ZM96.0175 289.063C96.0175 290.074 96.0175 290.074 96.0175 289.063 103.092 292.095 112.189 291.084 119.264 289.063L134.424 285.02C134.424 285.02 139.478 284.01 146.553 284.01 153.628 284.01 160.703 285.02 166.767 289.063L166.767 289.063C161.714 285.02 153.628 284.01 147.564 284.01 140.489 284.01 135.435 285.02 135.435 285.02L120.274 289.063C112.189 292.095 103.092 293.106 96.0175 289.063 96.0175 290.074 96.0175 290.074 96.0175 289.063L96.0175 289.063ZM93.996 293.106C95.0067 293.106 97.0282 294.117 100.06 295.127 105.114 296.138 111.178 296.138 119.264 294.117L134.424 290.074C134.424 290.074 139.478 289.063 145.542 288.052 151.607 288.052 158.681 289.063 163.735 293.106L163.735 293.106C158.681 289.063 151.607 288.052 145.542 288.052 139.478 288.052 134.424 289.063 134.424 289.063L119.264 293.106C111.178 295.127 105.114 295.127 100.06 294.117 97.0282 294.117 95.0067 293.106 93.996 293.106L93.996 293.106Z" fill="#FFFFFF" transform="matrix(1 0 0 1.00065 0 0.505682)"/><path d="M248.635 296.138C244.592 297.149 236.506 299.17 222.356 297.149L217.303 296.138 206.185 294.117C206.185 294.117 190.013 291.084 181.928 296.138L181.928 296.138C185.971 293.106 192.035 293.106 197.088 293.106 200.121 293.106 203.153 293.106 205.174 294.117 201.131 293.106 190.013 291.084 180.917 296.138L180.917 296.138C185.971 293.106 192.035 292.095 197.088 293.106 202.142 293.106 206.185 294.117 206.185 294.117L216.292 296.138 221.345 297.149C231.453 298.159 238.528 298.159 242.57 297.149 246.613 296.138 247.624 296.138 248.635 296.138 249.645 295.127 250.656 295.127 250.656 295.127L250.656 295.127C250.656 295.127 250.656 296.138 248.635 296.138ZM246.613 290.074C244.592 291.084 236.506 294.117 222.356 291.084L207.196 287.042C207.196 287.042 186.981 281.988 175.864 290.074L175.864 290.074C180.917 286.031 189.003 285.02 196.078 285.02 203.153 285.02 208.206 286.031 208.206 286.031L223.367 290.074C230.442 292.095 238.528 292.095 245.603 290.074 245.603 290.074 246.613 289.063 246.613 290.074L246.613 290.074ZM249.645 293.106C247.624 294.117 237.517 298.159 223.367 294.117L208.206 290.074C208.206 290.074 190.013 285.02 179.906 293.106L179.906 293.106C184.96 289.063 192.035 288.052 198.099 288.052 204.163 288.052 209.217 290.074 209.217 290.074L224.378 294.117C232.463 296.138 238.528 296.138 243.581 295.127 245.603 293.106 248.635 293.106 249.645 293.106L249.645 293.106Z" fill="#FFFFFF" transform="matrix(1 0 0 1.00065 0 0.505682)"/></g></svg>